<svg xmlns="http://www.w3.org/2000/svg" width="1200" height="280" viewBox="0 0 1200 280" preserveAspectRatio="xMidYMid slice">
  <defs>
    <linearGradient id="g1" x1="0" x2="1" y1="0" y2="1">
      <stop offset="0" stop-color="#0b1220"/>
      <stop offset="1" stop-color="#0f2a3a"/>
    </linearGradient>
    <filter id="shadow" x="-20%" y="-20%" width="140%" height="140%">
      <feDropShadow dx="0" dy="6" stdDeviation="10" flood-color="#000" flood-opacity="0.45" />
    </filter>
    
    <clipPath id="circle-clip">
      <circle cx="152" cy="140" r="86" />
    </clipPath>
  </defs>

  <rect width="1200" height="280" fill="url(#g1)"/>

  <path d="M0,80 C180,10 420,10 600,80 C780,150 1020,150 1200,80 L1200,280 L0,280 Z"
        fill="#081522" opacity="0.65" />

  <rect x="48" y="36" width="208" height="208" rx="16" ry="16" fill="#0b2632" filter="url(#shadow)"/>
  
  <image 
    href="assets/unnamed.jpg"
    x="48" 
    y="36" 
    width="208" 
    height="208"
    preserveAspectRatio="xMidYMid slice"
    clip-path="url(#circle-clip)"
  />

  <g font-family="Inter, Roboto, Arial, sans-serif" fill="#cfe7ff">
    <text x="280" y="100" font-size="36" font-weight="700">Mario Tomé Core</text>
    <text x="280" y="140" font-size="18" fill="#9fbdd8">Desarrollador Full Stack — Especialidad Python</text>
    <text x="280" y="170" font-size="14" fill="#8fb0c8">PyQt5 · Flask · Python · Java · Android · Flutter · SQL</text>
  </g>

  <rect x="280" y="190" width="760" height="64" rx="8" fill="#081827" opacity="0.9"/>
  <text x="300" y="215" font-family="Inter, Roboto, Arial, sans-serif" font-size="13" fill="#8fb0c8">Proyectos destacados</text>
  <text x="300" y="236" font-family="Inter, Roboto, Arial, sans-serif" font-size="16" fill="#d4eefc">PomodoroProApp · fantasyHelper · CRM_Python · AppStockDB</text>

  <g fill="#13485a" opacity="0.6">
    <rect x="980" y="40" width="6" height="40" rx="3"/>
    <rect x="1000" y="60" width="6" height="20" rx="3"/>
    <circle cx="990" cy="36" r="4"/>
    <circle cx="1010" cy="68" r="3"/>
  </g>
</svg>