<svg xmlns="http://www.w3.org/2000/svg" width="1200" height="120" viewBox="0 0 1200 120">
  <defs>
    <linearGradient id="footerBg" x1="0%" y1="0%" x2="100%" y2="100%">
      <stop offset="0%" stop-color="#0b1220"/>
      <stop offset="100%" stop-color="#071420"/>
    </linearGradient>
    <linearGradient id="topWave" x1="0%" y1="0%" x2="100%" y2="0%">
      <stop offset="0%" stop-color="#0f2a3a" stop-opacity="0.6"/>
      <stop offset="50%" stop-color="#1a3a4a" stop-opacity="0.4"/>
      <stop offset="100%" stop-color="#0f2a3a" stop-opacity="0.6"/>
    </linearGradient>
  </defs>
  
  <!-- Fondo principal -->
  <rect width="1200" height="120" fill="url(#footerBg)"/>
  
  <!-- Onda superior decorativa -->
  <path d="M0,0 Q300,25 600,0 T1200,0 L1200,30 L0,30 Z" 
        fill="url(#topWave)" opacity="0.5"/>
  
  <!-- Línea divisoria superior con degradado -->
  <line x1="0" y1="0" x2="1200" y2="0" stroke="#2a4a5a" stroke-width="2"/>
  
  <!-- Contenedor central con borde sutil -->
  <rect x="60" y="35" width="1080" height="50" rx="8" 
        fill="#0a1a2a" opacity="0.6" stroke="#1a3a4a" stroke-width="1"/>
  
  <g font-family="'Segoe UI', Tahoma, Geneva, Verdana, sans-serif">
    <!-- Ícono de copyright -->
    <text x="85" y="67" font-size="20" fill="#4a90b8">©</text>
    
    <!-- Texto principal -->
    <text x="115" y="58" font-size="15" fill="#cfe7ff" font-weight="600">
      Mario Tomé Core
    </text>
    
    <!-- Separador -->
    <text x="250" y="58" font-size="14" fill="#4a90b8">|</text>
    
    <!-- Descripción -->
    <text x="270" y="58" font-size="14" fill="#9fbdd8">
      Desarrollo Full Stack
    </text>
    
    <!-- Separador -->
    <text x="430" y="58" font-size="14" fill="#4a90b8">•</text>
    
    <!-- Formación -->
    <text x="450" y="58" font-size="14" fill="#9fbdd8">
      CFGS DAM y DAW
    </text>
    
    <!-- Línea inferior con info de contacto -->
    <text x="115" y="77" font-size="12" fill="#6fa9cc">
      📧 Contacto disponible en README
    </text>
    
    <text x="350" y="77" font-size="12" fill="#6fa9cc">
      •
    </text>
    
    <text x="365" y="77" font-size="12" fill="#6fa9cc">
      ⭐ Portafolio en constante actualización
    </text>
  </g>
  
  <!-- Elementos decorativos en las esquinas -->
  <g opacity="0.3">
    <!-- Esquina izquierda -->
    <circle cx="30" cy="60" r="4" fill="#4a90b8"/>
    <circle cx="30" cy="60" r="8" fill="none" stroke="#4a90b8" stroke-width="1"/>
    
    <!-- Esquina derecha -->
    <rect x="1150" y="50" width="20" height="3" rx="1.5" fill="#4a90b8"/>
    <rect x="1150" y="58" width="30" height="3" rx="1.5" fill="#4a90b8"/>
    <rect x="1150" y="66" width="25" height="3" rx="1.5" fill="#4a90b8"/>
  </g>
  
  <!-- Pequeños puntos decorativos -->
  <g fill="#2a4a5a" opacity="0.6">
    <circle cx="100" cy="15" r="2"/>
    <circle cx="250" cy="20" r="2"/>
    <circle cx="600" cy="12" r="2"/>
    <circle cx="950" cy="18" r="2"/>
    <circle cx="1100" cy="15" r="2"/>
  </g>
</svg>